<?xml version="1.0" encoding="UTF-8" standalone="no"?>
<svg
   xmlns:dc="http://purl.org/dc/elements/1.1/"
   xmlns:cc="http://creativecommons.org/ns#"
   xmlns:rdf="http://www.w3.org/1999/02/22-rdf-syntax-ns#"
   xmlns:svg="http://www.w3.org/2000/svg"
   xmlns="http://www.w3.org/2000/svg"
   xmlns:sodipodi="http://sodipodi.sourceforge.net/DTD/sodipodi-0.dtd"
   xmlns:inkscape="http://www.inkscape.org/namespaces/inkscape"
   width="4.0187597mm"
   height="4.0187497mm"
   viewBox="0 0 4.0187597 4.0187497"
   version="1.1"
   id="svg8"
   sodipodi:docname="favicon.svg"
   inkscape:version="1.0 (4035a4fb49, 2020-05-01)">
  <defs
     id="defs2">
    <inkscape:path-effect
       effect="bspline"
       id="path-effect851"
       is_visible="true"
       lpeversion="1"
       weight="33.333333"
       steps="2"
       helper_size="0"
       apply_no_weight="true"
       apply_with_weight="true"
       only_selected="false" />
  </defs>
  <sodipodi:namedview
     id="base"
     pagecolor="#ffffff"
     bordercolor="#666666"
     borderopacity="1.0"
     inkscape:pageopacity="0.0"
     inkscape:pageshadow="2"
     inkscape:zoom="32"
     inkscape:cx="1.8221122"
     inkscape:cy="6.0667409"
     inkscape:document-units="mm"
     inkscape:current-layer="layer1"
     inkscape:document-rotation="0"
     showgrid="true"
     inkscape:window-width="1920"
     inkscape:window-height="1001"
     inkscape:window-x="-9"
     inkscape:window-y="-9"
     inkscape:window-maximized="1"
     fit-margin-top="0"
     fit-margin-left="0"
     fit-margin-right="0"
     fit-margin-bottom="0">
    <inkscape:grid
       type="xygrid"
       id="grid833"
       originx="-109.77707"
       originy="-186.50625" />
  </sodipodi:namedview>
  <metadata
     id="metadata5">
    <rdf:RDF>
      <cc:Work
         rdf:about="">
        <dc:format>image/svg+xml</dc:format>
        <dc:type
           rdf:resource="http://purl.org/dc/dcmitype/StillImage" />
        <dc:title />
      </cc:Work>
    </rdf:RDF>
  </metadata>
  <g
     inkscape:label="Calque 1"
     inkscape:groupmode="layer"
     id="layer1"
     transform="translate(-109.77707,-186.50625)">
    <path
       style="fill:#ffffff;fill-opacity:1;stroke:#000000;stroke-width:0.1;stroke-linecap:round;stroke-linejoin:round;stroke-miterlimit:4;stroke-dasharray:none;paint-order:markers fill stroke"
       d="m 109.80208,189.70625 v -3.175 h 0.79375 -0.79375 0.79375 v 1.85208 l -0.79375,0.79375 h 0.79375 V 190.5 c -0.52916,0 -0.79375,-0.26458 -0.79375,-0.79375 z"
       id="path837"
       sodipodi:nodetypes="cccccccccc"
       inkscape:export-xdpi="400"
       inkscape:export-ydpi="400" />
    <path
       style="fill:#ffffff;fill-opacity:1;stroke:#000000;stroke-width:0.1;stroke-linecap:round;stroke-linejoin:round;stroke-miterlimit:4;stroke-dasharray:none;paint-order:markers fill stroke"
       d="m 112.97708,186.53125 c 0.52917,0 0.79375,0.26458 0.79375,0.79375 v 3.175 l -0.79375,-0.79375 v -0.52917 c 0,-0.79375 0,0 0,-0.79375 z"
       id="path843"
       sodipodi:nodetypes="ccccccc"
       inkscape:export-xdpi="400"
       inkscape:export-ydpi="400" />
    <path
       sodipodi:nodetypes="ccccc"
       transform="matrix(0.26458333,0,0,0.26458333,109.77707,186.50625)"
       d="m 6.09375,12.09375 v 3 h 9 c 7.89e-4,-1.999262 7.89e-4,-2.999262 -2.999211,-2.999262 z"
       style="fill:#0ea5e9;fill-opacity:1;stroke:#000000;stroke-width:0.377953;stroke-linecap:round;stroke-linejoin:round;stroke-miterlimit:4;stroke-dasharray:none;paint-order:markers fill stroke"
       id="path872" />
    <path
       sodipodi:nodetypes="ccccc"
       style="fill:#ef4444;fill-opacity:1;stroke:#000000;stroke-width:0.1;stroke-linecap:round;stroke-linejoin:round;stroke-miterlimit:4;stroke-dasharray:none;paint-order:markers fill stroke"
       d="m 113.50625,189.17708 -1.32292,0 v -0.79375 l 0.52917,0 c 0.52917,0 0.79375,0.26459 0.79375,0.79375 z"
       id="path874"
       inkscape:export-xdpi="400"
       inkscape:export-ydpi="400" />
    <path
       id="path886"
       style="fill:#facc15;fill-opacity:1;fill-rule:evenodd;stroke:#000000;stroke-width:0.1;stroke-linecap:round;stroke-linejoin:round;stroke-miterlimit:4;stroke-dasharray:none;paint-order:markers fill stroke"
       d="m 109.80208,186.53125 h 0.79375 m -0.79375,2.64583 h 0.79375 m 0,-2.64583 c 0.72131,0.001 1.31999,0.599 1.32406,1.32589 0.004,0.72689 -0.6028,1.31052 -1.32406,1.31994 m 0,-1.85208 c 0.18947,-0.005 0.35308,0.0918 0.45178,0.25361 0.0987,0.16181 0.10331,0.36405 0.0121,0.53019 -0.0912,0.16615 -0.27438,0.27092 -0.46388,0.27453 m -1e-5,0 -0.79375,0.79375 m 0.79376,-2.64583 -1e-5,0.79375"
       sodipodi:nodetypes="cccccsccssccccc"
       inkscape:export-xdpi="400"
       inkscape:export-ydpi="400" />
    <path
       sodipodi:nodetypes="ccc"
       style="fill:#facc15;fill-opacity:1;fill-rule:evenodd;stroke:#000000;stroke-width:0.1;stroke-linecap:round;stroke-linejoin:round;stroke-miterlimit:4;stroke-dasharray:none;paint-order:markers fill stroke"
       d="m 110.59583,189.17708 h -0.79375 c 0,-0.52916 0.26459,-0.79375 0.79375,-0.79375"
       id="path891" />
  </g>
</svg>
